<?xml version="1.0" encoding="utf-8"?>
<!-- Generator: Adobe Illustrator 22.1.0, SVG Export Plug-In . SVG Version: 6.00 Build 0)  -->
<svg version="1.1" id="Layer_1" xmlns="http://www.w3.org/2000/svg" xmlns:xlink="http://www.w3.org/1999/xlink" x="0px" y="0px"
	 viewBox="0 0 430 100" style="enable-background:new 0 0 430 100;" xml:space="preserve">
<style type="text/css">
	.st0{fill:#808080;}
	.st1{fill:#CF0A2C;}
	.st2{fill:none;stroke:#CF0A2C;stroke-width:5;stroke-miterlimit:10;}
</style>
<g>
	<g>
		<g>
			<path class="st0" d="M21.1,57.7V17.2h5.7l13,20.4c3,4.7,5.3,9,7.2,13.2l0.1-0.1c-0.5-5.4-0.6-10.3-0.6-16.6V17.2h4.9v40.4h-5.3
				L33.3,37.2c-2.8-4.5-5.5-9.1-7.5-13.5l-0.2,0.1c0.3,5.1,0.4,10,0.4,16.7v17.3H21.1z"/>
		</g>
	</g>
	<g>
		<g>
			<path class="st0" d="M57.3,48.2v24c0,9,4,12.8,9.5,12.8c6,0,9.8-4,9.8-12.8v-24h5.3v23.6c0,12.4-6.5,17.5-15.3,17.5
				c-8.3,0-14.5-4.7-14.5-17.3V48.2H57.3z"/>
		</g>
	</g>
</g>
<g>
	<g>
		<g>
			<path class="st1" d="M19.1,56.7V16.2h5.7l13,20.4c3,4.7,5.3,9,7.2,13.2l0.1-0.1c-0.5-5.4-0.6-10.3-0.6-16.6V16.2h4.9v40.4h-5.3
				L31.3,36.2c-2.8-4.5-5.5-9.1-7.5-13.5l-0.2,0.1c0.3,5.1,0.4,10,0.4,16.7v17.3H19.1z"/>
		</g>
	</g>
	<g>
		<g>
			<path d="M55.3,47.2v24c0,9,4,12.8,9.5,12.8c6,0,9.8-4,9.8-12.8v-24h5.3v23.6c0,12.4-6.5,17.5-15.3,17.5
				c-8.3,0-14.5-4.7-14.5-17.3V47.2H55.3z"/>
		</g>
	</g>
</g>
<rect x="5" y="5" class="st2" width="90" height="90"/>
<polygon class="st1" points="95,95 80,95 95,80 "/>
<g>
	<g>
		<path d="M105,67.5V27.1h5.7l13,20.4c3,4.7,5.3,9,7.2,13.2l0.1-0.1c-0.5-5.4-0.6-10.3-0.6-16.6V27.1h4.9v40.4h-5.3L117.3,47
			c-2.8-4.5-5.5-9.1-7.5-13.5l-0.2,0.1c0.3,5.1,0.4,10,0.4,16.7v17.3H105z"/>
		<path d="M160.5,67.5l-0.5-3.7h-0.2c-1.6,2.3-4.7,4.3-8.9,4.3c-5.9,0-8.9-4.2-8.9-8.3c0-7,6.2-10.9,17.4-10.8v-0.6
			c0-2.4-0.7-6.7-6.6-6.7c-2.7,0-5.5,0.8-7.6,2.2l-1.2-3.5c2.4-1.6,5.9-2.5,9.6-2.5c8.9,0,11,6.1,11,11.9v10.9c0,2.5,0.1,5,0.4,6.9
			H160.5z M159.6,52.7c-5.7-0.1-12.2,0.9-12.2,6.5c0,3.5,2.3,5.1,4.9,5.1c3.8,0,6.2-2.4,7.1-4.9c0.2-0.6,0.3-1.2,0.3-1.7V52.7z"/>
		<path d="M172.6,62.1c1.6,1,4.4,2.1,7,2.1c3.9,0,5.6-1.9,5.6-4.3c0-2.5-1.5-3.9-5.4-5.3c-5.2-1.9-7.7-4.8-7.7-8.2
			c0-4.7,3.8-8.5,10-8.5c3,0,5.5,0.8,7.1,1.8l-1.3,3.8c-1.1-0.7-3.2-1.7-6-1.7c-3.1,0-4.8,1.8-4.8,4c0,2.4,1.7,3.5,5.5,4.9
			c5,1.9,7.6,4.4,7.6,8.7c0,5.1-4,8.7-10.9,8.7c-3.2,0-6.1-0.8-8.2-2L172.6,62.1z"/>
		<path d="M203.4,30.1v8.4h7.6v4h-7.6v15.6c0,3.6,1,5.7,4,5.7c1.4,0,2.4-0.2,3.1-0.4l0.2,4c-1,0.4-2.7,0.7-4.7,0.7
			c-2.4,0-4.4-0.8-5.7-2.2c-1.5-1.6-2-4.2-2-7.6V42.5h-4.5v-4h4.5v-7L203.4,30.1z"/>
		<path d="M217,47.5c0-3.4-0.1-6.3-0.2-9h4.6l0.2,5.7h0.2c1.4-3.9,4.6-6.4,8.1-6.4c0.6,0,1,0,1.5,0.1v5c-0.5-0.1-1.1-0.2-1.8-0.2
			c-3.7,0-6.3,2.8-7.1,6.8c-0.1,0.7-0.2,1.6-0.2,2.5v15.5H217V47.5z"/>
		<path d="M252.7,67.5l-0.5-3.7h-0.2c-1.6,2.3-4.7,4.3-8.9,4.3c-5.9,0-8.9-4.2-8.9-8.3c0-7,6.2-10.9,17.4-10.8v-0.6
			c0-2.4-0.7-6.7-6.6-6.7c-2.7,0-5.5,0.8-7.6,2.2l-1.2-3.5c2.4-1.6,5.9-2.5,9.6-2.5c8.9,0,11,6.1,11,11.9v10.9c0,2.5,0.1,5,0.4,6.9
			H252.7z M251.9,52.7c-5.7-0.1-12.2,0.9-12.2,6.5c0,3.5,2.3,5.1,4.9,5.1c3.8,0,6.2-2.4,7.1-4.9c0.2-0.6,0.3-1.2,0.3-1.7V52.7z"/>
		<path d="M265.5,46.3c0-3-0.1-5.4-0.2-7.8h4.7l0.3,4.8h0.1c1.4-2.7,4.8-5.4,9.6-5.4c4,0,10.2,2.4,10.2,12.4v17.3H285V50.8
			c0-4.7-1.8-8.6-6.7-8.6c-3.5,0-6.2,2.5-7.1,5.4c-0.2,0.6-0.4,1.6-0.4,2.4v17.5h-5.3V46.3z"/>
		<path d="M311.1,49.3v3.9h-14.8v-3.9H311.1z"/>
		<path d="M322.6,27.1v24c0,9,4,12.8,9.5,12.8c6,0,9.8-4,9.8-12.8v-24h5.3v23.6c0,12.4-6.5,17.5-15.3,17.5
			c-8.3,0-14.5-4.7-14.5-17.3V27.1H322.6z"/>
		<path d="M362.4,30.1v8.4h7.6v4h-7.6v15.6c0,3.6,1,5.7,4,5.7c1.4,0,2.4-0.2,3.1-0.4l0.2,4c-1,0.4-2.7,0.7-4.7,0.7
			c-2.4,0-4.4-0.8-5.7-2.2c-1.5-1.6-2-4.2-2-7.6V42.5h-4.5v-4h4.5v-7L362.4,30.1z"/>
		<path d="M381.9,30.3c0,1.8-1.3,3.3-3.4,3.3c-1.9,0-3.2-1.5-3.2-3.3c0-1.8,1.3-3.3,3.3-3.3C380.6,27,381.8,28.4,381.9,30.3z
			 M376,67.5v-29h5.3v29H376z"/>
		<path d="M390,24.9h5.3v42.6H390V24.9z"/>
		<path d="M403.4,62.1c1.6,1,4.4,2.1,7,2.1c3.9,0,5.6-1.9,5.6-4.3c0-2.5-1.5-3.9-5.4-5.3c-5.2-1.9-7.7-4.8-7.7-8.2
			c0-4.7,3.8-8.5,10-8.5c3,0,5.5,0.8,7.1,1.8l-1.3,3.8c-1.1-0.7-3.2-1.7-6-1.7c-3.1,0-4.8,1.8-4.8,4c0,2.4,1.7,3.5,5.5,4.9
			c5,1.9,7.6,4.4,7.6,8.7c0,5.1-4,8.7-10.9,8.7c-3.2,0-6.1-0.8-8.2-2L403.4,62.1z"/>
	</g>
</g>
</svg>
